# xmcd
#
# Track frame offsets:
#	150
#	14450
#	26199
#	37930
#	49554
#	61620
#	73095
#	88886
#	104231
#	114828
#	127553
#	143027
#	157822
#	170649
#	184141
#	197115
#	209476
#	222040
#	234951
#	245707
#
# Disc length: 3430 seconds
#
# Revision: 0
# Processed by: cddbd v1.4PL0 Copyright (c) Steve Scherf et al.
# Submitted via: dBpowerAMP V4.0
#
DISCID=150d6414
DTITLE=Sonny Boy Williamson - The Best Of
DYEAR=1900
DGENRE=Blues
TTITLE0=Help Me
TTITLE1=Bring It On Home
TTITLE2=Don't Start Me Talking
TTITLE3=Born Blind
TTITLE4=Ninety Nine
TTITLE5=Your Funeral My Trial
TTITLE6=Nine Below Zero
TTITLE7=Cross My Heart
TTITLE8=Let Your Concience Be Your Guide
TTITLE9=One Way Out
TTITLE10=Decoration Day
TTITLE11=Key To Your Door
TTITLE12=Keep It To Yourself
TTITLE13=Wake Up Baby
TTITLE14=Too Young To Die
TTITLE15=Cool Disposition
TTITLE16=The Goat
TTITLE17=Like Wolf
TTITLE18=Fattening Frogs For Snakes
TTITLE19=Bye Bye Bird
EXTD=
EXTT0=
EXTT1=
EXTT2=
EXTT3=
EXTT4=
EXTT5=
EXTT6=
EXTT7=
EXTT8=
EXTT9=
EXTT10=
EXTT11=
EXTT12=
EXTT13=
EXTT14=
EXTT15=
EXTT16=
EXTT17=
EXTT18=
EXTT19=
PLAYORDER=
